<?xml version="1.0" encoding="UTF-8" standalone="no"?>
<svg
   height="48"
   viewBox="0 96 960 960"
   width="48"
   version="1.1"
   id="svg33"
   sodipodi:docname="home-icon.svg"
   inkscape:version="1.2.2 (732a01da63, 2022-12-09, custom)"
   xmlns:inkscape="http://www.inkscape.org/namespaces/inkscape"
   xmlns:sodipodi="http://sodipodi.sourceforge.net/DTD/sodipodi-0.dtd"
   xmlns="http://www.w3.org/2000/svg"
   xmlns:svg="http://www.w3.org/2000/svg">
  <defs
     id="defs37" />
  <sodipodi:namedview
     id="namedview35"
     pagecolor="#ffffff"
     bordercolor="#000000"
     borderopacity="0.25"
     inkscape:showpageshadow="2"
     inkscape:pageopacity="0.0"
     inkscape:pagecheckerboard="0"
     inkscape:deskcolor="#d1d1d1"
     showgrid="false"
     inkscape:zoom="11.976621"
     inkscape:cx="22.376929"
     inkscape:cy="24.756565"
     inkscape:window-width="1920"
     inkscape:window-height="1016"
     inkscape:window-x="343"
     inkscape:window-y="1107"
     inkscape:window-maximized="1"
     inkscape:current-layer="svg33" />
  <path
     d="m 180,936 c -16.66667,0 -30.83333,-5.83333 -42.5,-17.5 C 125.83333,906.83333 120,892.66667 120,876 V 739.46415 L 280,598.98831 V 936 Z m 96.05534,0 -9.00845,-160 h 426.00406 l -6.39216,160 z M 680,936 V 608 L 475.26061,422.65901 519.60146,252.30924 820,518 c 6.66667,6 11.66667,12.83333 15,20.5 3.33333,7.66667 5,15.83333 5,24.5 v 313 c 0,16.66667 -5.83333,30.83333 -17.5,42.5 C 810.83333,930.16667 796.66667,936 780,936 Z M 120,746 V 563 c 0,-8.66667 1.66667,-17 5,-25 3.33333,-8 8.33333,-14.66667 15,-20 L 440,252 c 5.33333,-5.33333 11.5,-9.16667 18.5,-11.5 7,-2.33333 14.16667,-3.5 21.5,-3.5 7.33333,0 14.5,1.16667 21.5,3.5 7,2.33333 13.16667,6.16667 18.5,11.5 l 80,71 z"
     id="path31"
     sodipodi:nodetypes="ssscccsccccccccccsssssccssccsssccc" />
</svg>
