<?xml version="1.0" encoding="utf-8"?>
<!-- Generator: Adobe Illustrator 24.1.2, SVG Export Plug-In . SVG Version: 6.00 Build 0)  -->
<svg version="1.1"
	 id="svg33" inkscape:version="1.2.2 (732a01da63, 2022-12-09, custom)" sodipodi:docname="home-icon.svg" xmlns:inkscape="http://www.inkscape.org/namespaces/inkscape" xmlns:sodipodi="http://sodipodi.sourceforge.net/DTD/sodipodi-0.dtd" xmlns:svg="http://www.w3.org/2000/svg"
	 xmlns="http://www.w3.org/2000/svg" xmlns:xlink="http://www.w3.org/1999/xlink" x="0px" y="0px" viewBox="0 0 48 48"
	 style="enable-background:new 0 0 48 48;" xml:space="preserve">
<style type="text/css">
	.st0{fill:#424142;}
</style>
<sodipodi:namedview  bordercolor="#000000" borderopacity="0.25" id="namedview35" inkscape:current-layer="svg33" inkscape:cx="22.376929" inkscape:cy="24.756565" inkscape:deskcolor="#d1d1d1" inkscape:pagecheckerboard="0" inkscape:pageopacity="0.0" inkscape:showpageshadow="2" inkscape:window-height="1016" inkscape:window-maximized="1" inkscape:window-width="1920" inkscape:window-x="343" inkscape:window-y="1107" inkscape:zoom="11.976621" pagecolor="#ffffff" showgrid="false">
	</sodipodi:namedview>
<path class="st0" d="M41.8,22.1c-0.2-0.4-0.4-0.7-0.8-1l-11-9.7l0,0l-4-3.6c-0.3-0.3-0.6-0.5-0.9-0.6C24.7,7.1,24.4,7,24,7
	s-0.7,0.1-1.1,0.2c-0.3,0.1-0.7,0.3-0.9,0.6L7,21.1c-0.3,0.3-0.6,0.6-0.8,1C6.1,22.5,6,22.9,6,23.3V39c0,0.8,0.3,1.5,0.9,2.1
	C7.5,41.7,8.2,42,9,42h30c0.8,0,1.5-0.3,2.1-0.9c0.6-0.6,0.9-1.3,0.9-2.1V23.3C42,22.9,41.9,22.5,41.8,22.1z M34,34H14v-8.5l10-8.9
	l10,9V34z"/>
</svg>
