<?xml version="1.0" encoding="utf-8"?>
<!-- Generator: Adobe Illustrator 24.1.2, SVG Export Plug-In . SVG Version: 6.00 Build 0)  -->
<svg version="1.1" id="Layer_1" xmlns="http://www.w3.org/2000/svg" xmlns:xlink="http://www.w3.org/1999/xlink" x="0px" y="0px"
	 viewBox="0 0 48 48" style="enable-background:new 0 0 48 48;" xml:space="preserve">
<style type="text/css">
	.st0{fill:#FFFFFF;}
</style>
<path d="M24,38.7c-0.4,0-0.8-0.1-1-0.3c-0.3-0.2-0.5-0.5-0.6-0.9c-0.8-2.4-1.8-4.5-3-6c-1.2-1.6-2.4-3.1-3.5-4.6
	c-1.1-1.5-2.1-3-2.9-4.6c-0.8-1.6-1.2-3.6-1.2-5.9c0-3.4,1.2-6.3,3.6-8.7C17.6,5.2,20.6,4,24,4s6.4,1.2,8.7,3.6
	c2.4,2.4,3.6,5.3,3.6,8.7c0,2.4-0.4,4.3-1.2,5.9c-0.8,1.6-1.8,3.1-2.9,4.6c-1.1,1.5-2.3,3-3.5,4.6c-1.2,1.6-2.2,3.6-3,6
	c-0.1,0.4-0.4,0.7-0.7,0.9C24.8,38.6,24.4,38.7,24,38.7z"/>
<path d="M24,44c-3.5,0-6.4-0.5-8.6-1.5c-2.2-1-3.4-2.3-3.4-4c0-0.9,0.4-1.8,1.2-2.5s1.9-1.5,3.4-2l0.9,2.9c-0.5,0.2-1,0.4-1.5,0.7
	c-0.4,0.3-0.8,0.6-1.1,0.9c0.6,0.7,1.7,1.3,3.5,1.8S22.1,41,24,41s3.8-0.3,5.6-0.8c1.8-0.5,3-1.1,3.6-1.8c-0.3-0.3-0.6-0.5-1.1-0.8
	c-0.4-0.3-0.9-0.5-1.5-0.8l0.8-2.9c1.4,0.5,2.6,1.2,3.4,2s1.2,1.7,1.2,2.5c0,1.6-1.1,2.9-3.3,4C30.4,43.5,27.5,44,24,44z"/>
<path class="st0" d="M24,33.2c0.7-1.3,1.4-2.5,2.2-3.6c0.8-1.1,1.6-2.1,2.3-3.1c1.5-1.9,2.6-3.5,3.5-4.9c0.8-1.4,1.3-3.2,1.3-5.4
	c0-2.6-0.9-4.8-2.7-6.6C28.8,7.9,26.6,7,24,7c-2.6,0-4.8,0.9-6.6,2.7c-1.8,1.8-2.7,4-2.7,6.6c0,2.2,0.4,4,1.3,5.4s2,3,3.5,4.9
	c0.8,1,1.5,2,2.3,3.1C22.6,30.8,23.3,31.9,24,33.2z"/>
<path d="M24,19.3c0.8,0,1.5-0.3,2.1-0.9c0.6-0.6,0.9-1.3,0.9-2.1c0-0.8-0.3-1.5-0.9-2.1c-0.6-0.6-1.3-0.9-2.1-0.9
	c-0.8,0-1.5,0.3-2.1,0.9c-0.6,0.6-0.9,1.3-0.9,2.1c0,0.8,0.3,1.5,0.9,2.1C22.5,19,23.2,19.3,24,19.3z"/>
</svg>
