<?xml version="1.0" encoding="utf-8"?>
<!-- Generator: Adobe Illustrator 24.1.2, SVG Export Plug-In . SVG Version: 6.00 Build 0)  -->
<svg version="1.1" id="Layer_1" xmlns="http://www.w3.org/2000/svg" xmlns:xlink="http://www.w3.org/1999/xlink" x="0px" y="0px"
	 viewBox="0 0 65.2 78.7" style="enable-background:new 0 0 65.2 78.7;" xml:space="preserve">
<style type="text/css">
	.st0{fill:#FFFFFF;}
</style>
<path d="M61.4,28.9C61.4,43.8,38.1,77,34.5,77C30.8,77,7.6,43.8,7.6,28.9s12-26.9,26.9-26.9S61.4,14.1,61.4,28.9z"/>
<path class="st0" d="M29,52.1V25.2c-3.2-0.7-5.7-2.1-7.6-4.3s-2.9-4.7-2.9-7.6h3c0,2.6,1,4.8,3,6.6s4.5,2.6,7.4,2.6h5
	c1.3,0,2.2,0.1,2.8,0.3c0.6,0.2,1.4,0.7,2.3,1.5l9.2,8.6l-2.2,2.2l-9.3-8.7v25.7h-3V39.3H32v12.8H29z M34.4,19.4
	c-1,0-1.9-0.4-2.6-1.1c-0.7-0.7-1.1-1.6-1.1-2.6c0-1,0.4-1.9,1.1-2.6c0.7-0.7,1.6-1.1,2.6-1.1c1,0,1.9,0.4,2.6,1.1
	c0.7,0.7,1.1,1.6,1.1,2.6c0,1-0.4,1.9-1.1,2.6C36.3,19,35.4,19.4,34.4,19.4z"/>
</svg>
