<?xml version="1.0" encoding="utf-8"?>
<!-- Generator: Adobe Illustrator 24.1.2, SVG Export Plug-In . SVG Version: 6.00 Build 0)  -->
<svg version="1.1" id="Layer_1" xmlns="http://www.w3.org/2000/svg" xmlns:xlink="http://www.w3.org/1999/xlink" x="0px" y="0px"
	 viewBox="0 0 48 48" style="enable-background:new 0 0 48 48;" xml:space="preserve">
<style type="text/css">
	.st0{fill:#FFFFFF;}
</style>
<path d="M7.3,18c-0.4,0-0.7-0.1-1-0.5c-0.3-0.3-0.4-0.6-0.4-1s0.1-0.8,0.4-1.1c0.3-0.3,0.6-0.4,1-0.4h7.4c1,0,1.7,0.3,2.3,0.9
	c0.5,0.6,0.9,1.3,1,2.1H7.3z"/>
<path d="M11.4,40c-2.6,0-4.9-0.9-6.7-2.8S2,33.1,2,30.5s0.9-4.9,2.8-6.7c1.8-1.9,4.1-2.8,6.7-2.8c1.1,0,2.1,0.2,3.2,0.5
	c1.1,0.4,2,0.9,2.9,1.6h3.5c1.4,0,2.6-0.5,3.5-1.5c0.9-1,1.4-2.2,1.4-3.6v-5.2l-2.4-2.4l-3.1,3.1l-0.9-0.9l7.1-7.1l0.9,0.9l-3.1,3.1
	l2.4,2.4h13.6c0.9,0,1.6,0.3,2.2,0.8c0.6,0.6,0.8,1.3,0.8,2.2v13c0.8,0.7,1.4,1.5,1.8,2.4c0.5,0.9,0.7,1.9,0.7,2.9
	c0,1.9-0.7,3.5-2,4.8c-1.3,1.3-2.9,2-4.8,2c-1.9,0-3.5-0.7-4.8-2s-2-2.9-2-4.6c0-0.2,0-0.4,0-0.7c0-0.3,0-0.5,0.1-0.7H20.9
	c-0.4,2.3-1.4,4.2-3.2,5.7S13.8,40,11.4,40z"/>
<path class="st0" d="M11.5,37c1.8,0,3.3-0.6,4.6-1.9c1.3-1.3,1.9-2.8,1.9-4.6c0-1.8-0.6-3.3-1.9-4.6c-1.3-1.3-2.8-1.9-4.6-1.9
	c-1.8,0-3.3,0.6-4.6,1.9C5.6,27.2,5,28.7,5,30.5c0,1.8,0.6,3.3,1.9,4.6C8.2,36.4,9.7,37,11.5,37z"/>
<path class="st0" d="M39.2,37c1,0,1.9-0.4,2.7-1.1c0.7-0.7,1.1-1.6,1.1-2.6c0-1-0.4-1.9-1.1-2.7c-0.7-0.7-1.6-1.1-2.7-1.1
	c-1,0-1.9,0.4-2.7,1.1c-0.7,0.7-1.1,1.6-1.1,2.6c0,1,0.4,1.9,1.1,2.7C37.3,36.6,38.2,37,39.2,37z"/>
<path d="M11.5,34c-1,0-1.8-0.3-2.5-1c-0.7-0.7-1-1.5-1-2.5c0-1,0.3-1.8,1-2.5c0.7-0.7,1.5-1,2.5-1c1,0,1.8,0.3,2.5,1
	c0.7,0.7,1,1.5,1,2.5c0,1-0.3,1.8-1,2.5C13.3,33.7,12.5,34,11.5,34z"/>
<path d="M20.9,28.9H34c0.6-0.7,1.4-1.3,2.3-1.8s2-0.7,3-0.7h1.1V15H29v3.1c0,2.2-0.8,4-2.4,5.6s-3.4,2.4-5.6,2.4H20
	c0.2,0.3,0.3,0.7,0.5,1.2C20.7,27.9,20.8,28.4,20.9,28.9z"/>
</svg>
