<?xml version="1.0" encoding="UTF-8" standalone="no"?>
<!-- Created with Inkscape (http://www.inkscape.org/) -->

<svg
   version="1.1"
   id="svg18"
   width="32.459442"
   height="78.666695"
   viewBox="0 0 32.459442 78.666691"
   sodipodi:docname="locool-symbol.svg"
   inkscape:version="1.2.2 (732a01da63, 2022-12-09, custom)"
   xmlns:inkscape="http://www.inkscape.org/namespaces/inkscape"
   xmlns:sodipodi="http://sodipodi.sourceforge.net/DTD/sodipodi-0.dtd"
   xmlns="http://www.w3.org/2000/svg"
   xmlns:svg="http://www.w3.org/2000/svg">
  <sodipodi:namedview
     id="namedview3251"
     pagecolor="#ffffff"
     bordercolor="#000000"
     borderopacity="0.25"
     inkscape:showpageshadow="2"
     inkscape:pageopacity="0.0"
     inkscape:pagecheckerboard="0"
     inkscape:deskcolor="#d1d1d1"
     showgrid="false"
     inkscape:zoom="3.932531"
     inkscape:cx="-24.15747"
     inkscape:cy="35.473337"
     inkscape:window-width="1920"
     inkscape:window-height="1016"
     inkscape:window-x="343"
     inkscape:window-y="1107"
     inkscape:window-maximized="1"
     inkscape:current-layer="g26" />
  <defs
     id="defs22" />
  <g
     id="g26"
     transform="matrix(1.3333333,0,0,-1.3333333,-158.48892,1058.6666)">
    <g
       id="g56"
       transform="translate(118.8667,761.83838)">
      <path
         d="m 10.655327,0.144196 c 0.01682,0.093023 0.02803,0.186985 0.03356,0.281368 0,3.869369 -9e-6,7.738739 -0.02238,11.608108 0.0195,1.248211 -0.27765,2.480807 -0.863354,3.58125 -0.76718,1.388832 -2.066687,1.960571 -3.520526,2.250942 C 5.351263,18.055218 4.399771,18.124802 3.450989,18.07295 3.227321,18.061695 3.003654,18.054943 2.990234,17.730806 2.92537,15.995329 3.034968,14.289118 3.884904,12.724712 4.517884,11.572231 5.56241,10.986986 6.776925,10.647095 7.049799,10.570562 7.331625,10.518789 7.606737,10.45126 7.992319,10.373055 8.331243,10.143906 8.548942,9.814219 8.766641,9.484533 8.845282,9.081316 8.767571,8.693275 8.689862,8.305233 8.462158,7.964151 8.134562,7.745064 7.806965,7.525976 7.406311,7.446831 7.020729,7.525036 c -3.726303,0.5965 -6.16428,3.02977 -6.795023,6.786592 -0.32851,1.967635 -0.298188,3.979029 0.089472,5.935732 0.049207,0.256607 0.12078,0.429932 0.418258,0.483954 2.299302,0.416425 4.58965,0.472698 6.868823,-0.128304 0.919971,-0.23929 1.795924,-0.625339 2.594552,-1.143478 0.125253,-0.08103 0.24603,-0.27912 0.40036,-0.191332 0.154331,0.08779 0.08052,0.317385 0.08276,0.481703 0.03355,1.400087 -0.05591,2.802423 0.07605,4.202509 0.187881,1.987581 0.70679,3.85136 2.013009,5.402259 1.169781,1.377577 2.715315,2.106883 4.437556,2.476037 2.096952,0.441219 4.261915,0.441219 6.358868,0 0.223667,-0.04277 0.384719,-0.09229 0.43169,-0.351145 0.521147,-2.869951 0.561401,-5.70839 -0.619562,-8.441035 -1.100445,-2.550315 -3.189507,-3.826602 -5.792998,-4.357824 -0.369709,-0.05889 -0.747844,0.02576 -1.057888,0.236813 -0.310043,0.211059 -0.528835,0.53277 -0.61211,0.900028 -0.08328,0.36726 -0.02482,0.752642 0.163559,1.078161 0.188377,0.325522 0.492596,0.566872 0.851095,0.675209 0.708689,0.163483 1.394585,0.41449 2.042086,0.747311 1.201095,0.693291 1.789347,1.816513 2.102482,3.106302 0.253162,1.086428 0.351068,2.203638 0.290764,3.317888 0,0.193581 -4e-6,0.400668 -0.270642,0.40967 -1.706585,0.06303 -3.388557,-0.03826 -4.940809,-0.86211 -1.397923,-0.74056 -1.970513,-2.025846 -2.294831,-3.500214 -0.270639,-1.213258 -0.19907,-2.440021 -0.201307,-3.664533 -0.01193,-6.910393 -0.01193,-13.820786 0,-20.731176 0,-0.09454 0.01566,-0.189084 0.02237,-0.283621 l -3.02399,0.033764 z"
         style="fill:#6e9744;fill-opacity:1;fill-rule:nonzero;stroke:none"
         id="path58" />
    </g>
    <g
       id="g60"
       transform="translate(120.6543,734.81958)">
      <path
         d="M 10.853897,30.420065 C 17.919556,30.402058 23.616364,23.320593 20.842886,15.498569 19.556797,11.874554 17.608654,8.630945 15.378689,5.544905 14.17312,3.876957 12.855718,2.290045 11.576339,0.685123 11.048484,0.027849 10.556415,0.009838 10.010666,0.646854 6.420802,4.880877 3.157491,9.333241 1.063963,14.535167 c -1.100445,2.728141 -1.465019,5.523812 -0.527852,8.407269 0.714744,2.183262 2.098044,4.082707 3.951574,5.426018 1.85353,1.343313 4.082101,2.061506 6.366212,2.051611 z"
         style="fill:#d95656;fill-opacity:1;fill-rule:nonzero;stroke:none"
         id="path62" />
    </g>
    <g
       id="g64"
       transform="translate(124.71326,747.6958)">
      <path
         d="M 1.952627,1.994473 C 2.562391,1.377968 3.283607,0.884415 4.077468,0.540367 4.909118,0.183739 5.8038,-9.2e-5 6.707801,-9.2e-5 c 0.904001,0 1.798683,0.183831 2.630332,0.540459 0.797431,0.346367 1.521693,0.842988 2.133783,1.463112 0.607778,0.619211 1.094846,1.347589 1.435956,2.147401 0.346827,0.825477 0.525531,1.712602 0.525531,2.60884 0,0.896238 -0.178704,1.783363 -0.525531,2.608841 -0.339982,0.800428 -0.827184,1.529009 -1.435956,2.1474 -0.611522,0.620812 -1.335924,1.11753 -2.133783,1.463112 -0.831649,0.356629 -1.726331,0.540458 -2.630332,0.540458 -0.904001,0 -1.798683,-0.183829 -2.630333,-0.540458 C 2.473482,12.289423 1.200037,10.997356 0.527866,9.377566 0.1795,8.548933 0,7.658341 0,6.758594 0,5.858846 0.1795,4.968254 0.527866,4.139621 0.863561,3.340246 1.347046,2.612301 1.952627,1.994473 Z"
         style="fill:#95c959;fill-opacity:1;fill-rule:nonzero;stroke:none"
         id="path66" />
    </g>
  </g>
</svg>
