<?xml version="1.0" encoding="UTF-8" standalone="no"?>
<!-- Created with Inkscape (http://www.inkscape.org/) -->

<svg
   version="1.1"
   id="svg667"
   width="147.99994"
   height="78.666695"
   viewBox="0 0 147.99994 78.666691"
   sodipodi:docname="Cool Banana Interface.pdf"
   xmlns:inkscape="http://www.inkscape.org/namespaces/inkscape"
   xmlns:sodipodi="http://sodipodi.sourceforge.net/DTD/sodipodi-0.dtd"
   xmlns="http://www.w3.org/2000/svg"
   xmlns:svg="http://www.w3.org/2000/svg">
  <defs
     id="defs671">
    <clipPath
       clipPathUnits="userSpaceOnUse"
       id="clipPath843">
      <path
         d="M 0,800 H 360 V 0 H 0 Z"
         clip-rule="evenodd"
         id="path841" />
    </clipPath>
  </defs>
  <sodipodi:namedview
     id="namedview669"
     pagecolor="#ffffff"
     bordercolor="#000000"
     borderopacity="0.25"
     inkscape:showpageshadow="2"
     inkscape:pageopacity="0.0"
     inkscape:pagecheckerboard="0"
     inkscape:deskcolor="#d1d1d1"
     showgrid="false" />
  <g
     id="g673"
     inkscape:groupmode="layer"
     inkscape:label="Cool Banana Interface2"
     transform="matrix(1.3333333,0,0,-1.3333333,-88,1058.6666)">
    <g
       id="g703"
       transform="translate(118.8667,761.83838)"
       inkscape:export-filename="../7293429d/logo_main.svg"
       inkscape:export-xdpi="96"
       inkscape:export-ydpi="96">
      <path
         d="m 10.655327,0.144196 c 0.01682,0.093023 0.02803,0.186985 0.03356,0.281368 0,3.869369 -9e-6,7.738739 -0.02238,11.608108 0.0195,1.248211 -0.27765,2.480807 -0.863354,3.58125 -0.76718,1.388832 -2.066687,1.960571 -3.520526,2.250942 C 5.351263,18.055218 4.399771,18.124802 3.450989,18.07295 3.227321,18.061695 3.003654,18.054943 2.990234,17.730806 2.92537,15.995329 3.034968,14.289118 3.884904,12.724712 4.517884,11.572231 5.56241,10.986986 6.776925,10.647095 7.049799,10.570562 7.331625,10.518789 7.606737,10.45126 7.992319,10.373055 8.331243,10.143906 8.548942,9.814219 8.766641,9.484533 8.845282,9.081316 8.767571,8.693275 8.689862,8.305233 8.462158,7.964151 8.134562,7.745064 7.806965,7.525976 7.406311,7.446831 7.020729,7.525036 c -3.726303,0.5965 -6.16428,3.02977 -6.795023,6.786592 -0.32851,1.967635 -0.298188,3.979029 0.089472,5.935732 0.049207,0.256607 0.12078,0.429932 0.418258,0.483954 2.299302,0.416425 4.58965,0.472698 6.868823,-0.128304 0.919971,-0.23929 1.795924,-0.625339 2.594552,-1.143478 0.125253,-0.08103 0.24603,-0.27912 0.40036,-0.191332 0.154331,0.08779 0.08052,0.317385 0.08276,0.481703 0.03355,1.400087 -0.05591,2.802423 0.07605,4.202509 0.187881,1.987581 0.70679,3.85136 2.013009,5.402259 1.169781,1.377577 2.715315,2.106883 4.437556,2.476037 2.096952,0.441219 4.261915,0.441219 6.358868,0 0.223667,-0.04277 0.384719,-0.09229 0.43169,-0.351145 0.521147,-2.869951 0.561401,-5.70839 -0.619562,-8.441035 -1.100445,-2.550315 -3.189507,-3.826602 -5.792998,-4.357824 -0.369709,-0.05889 -0.747844,0.02576 -1.057888,0.236813 -0.310043,0.211059 -0.528835,0.53277 -0.61211,0.900028 -0.08328,0.36726 -0.02482,0.752642 0.163559,1.078161 0.188377,0.325522 0.492596,0.566872 0.851095,0.675209 0.708689,0.163483 1.394585,0.41449 2.042086,0.747311 1.201095,0.693291 1.789347,1.816513 2.102482,3.106302 0.253162,1.086428 0.351068,2.203638 0.290764,3.317888 0,0.193581 -4e-6,0.400668 -0.270642,0.40967 -1.706585,0.06303 -3.388557,-0.03826 -4.940809,-0.86211 -1.397923,-0.74056 -1.970513,-2.025846 -2.294831,-3.500214 -0.270639,-1.213258 -0.19907,-2.440021 -0.201307,-3.664533 -0.01193,-6.910393 -0.01193,-13.820786 0,-20.731176 0,-0.09454 0.01566,-0.189084 0.02237,-0.283621 l -3.02399,0.033764 z"
         style="fill:#95ca59;fill-opacity:1;fill-rule:nonzero;stroke:none"
         id="path705" />
    </g>
    <g
       id="g707"
       transform="translate(120.6543,734.81958)">
      <path
         d="M 10.853897,30.420065 C 17.919556,30.402058 23.616364,23.320593 20.842886,15.498569 19.556797,11.874554 17.608654,8.630945 15.378689,5.544905 14.17312,3.876957 12.855718,2.290045 11.576339,0.685123 11.048484,0.027849 10.556415,0.009838 10.010666,0.646854 6.420802,4.880877 3.157491,9.333241 1.063963,14.535167 c -1.100445,2.728141 -1.465019,5.523812 -0.527852,8.407269 0.714744,2.183262 2.098044,4.082707 3.951574,5.426018 1.85353,1.343313 4.082101,2.061506 6.366212,2.051611 z"
         style="fill:#d95656;fill-opacity:1;fill-rule:nonzero;stroke:none"
         id="path709" />
    </g>
    <g
       id="g711"
       transform="translate(124.71326,747.6958)">
      <path
         d="M 1.952627,1.994473 C 2.562391,1.377968 3.283607,0.884415 4.077468,0.540367 4.909118,0.183739 5.8038,-9.2e-5 6.707801,-9.2e-5 c 0.904001,0 1.798683,0.183831 2.630332,0.540459 0.797431,0.346367 1.521693,0.842988 2.133783,1.463112 0.607778,0.619211 1.094846,1.347589 1.435956,2.147401 0.346827,0.825477 0.525531,1.712602 0.525531,2.60884 0,0.896238 -0.178704,1.783363 -0.525531,2.608841 -0.339982,0.800428 -0.827184,1.529009 -1.435956,2.1474 -0.611522,0.620812 -1.335924,1.11753 -2.133783,1.463112 -0.831649,0.356629 -1.726331,0.540458 -2.630332,0.540458 -0.904001,0 -1.798683,-0.183829 -2.630333,-0.540458 C 2.473482,12.289423 1.200037,10.997356 0.527866,9.377566 0.1795,8.548933 0,7.658341 0,6.758594 0,5.858846 0.1795,4.968254 0.527866,4.139621 0.863561,3.340246 1.347046,2.612301 1.952627,1.994473 Z"
         style="fill:#95ca59;fill-opacity:1;fill-rule:nonzero;stroke:none"
         id="path713" />
    </g>
    <g
       id="g715"
       transform="translate(66,743.79273)"
       style="fill:#424142;fill-opacity:1">
      <path
         d="m 4.83e-4,2.003431 v 26.786208 c -0.005821,0.264751 0.041054,0.527999 0.137853,0.774246 0.096799,0.246246 0.24157,0.470514 0.425793,0.659603 0.380291,0.376528 0.892399,0.587547 1.425881,0.587547 0.533482,0 1.04559,-0.211019 1.425881,-0.587547 0.184224,-0.189089 0.328994,-0.413357 0.425793,-0.659603 0.096799,-0.246247 0.14366,-0.509495 0.13784,-0.774246 V 4.029278 h 0.919284 c 0.530324,0 1.038927,-0.212013 1.413923,-0.589401 C 6.687726,3.062489 6.898397,2.550642 6.898397,2.016935 6.898397,1.483231 6.687726,0.971382 6.312731,0.593996 5.937735,0.216608 5.429132,0.004593 4.898808,0.004593 H 1.979935 C 1.719579,9.5e-5 1.461135,0.049982 1.220907,0.151102 0.98068,0.252224 0.763892,0.402384 0.584252,0.592093 0.397468,0.775614 0.249481,0.995237 0.149162,1.237768 0.048844,1.480301 -0.001732,1.740734 4.83e-4,2.003431 Z"
         style="fill:#424142;fill-opacity:1;fill-rule:nonzero;stroke:none"
         id="path717" />
    </g>
    <g
       id="g719"
       transform="translate(75.387695,743.79028)"
       style="fill:#424142;fill-opacity:1">
      <path
         d="M 21.429741,10.786775 C 21.458067,9.367086 21.194523,7.956828 20.65567,6.644484 20.116816,5.332138 19.31428,4.146032 18.298395,3.160585 17.303257,2.158806 16.121796,1.364086 14.821473,0.821814 13.52115,0.279539 12.127427,3.34e-4 10.719881,1.24e-4 9.312335,-8.4e-5 7.918526,0.278709 6.618043,0.820597 5.317561,1.362484 4.13587,2.156847 3.140439,3.158333 2.145006,4.159819 1.355324,5.348814 0.816488,6.657432 0.277651,7.966049 2.08e-4,9.368661 0,10.785185 c -4.19e-4,2.860798 1.128427,5.604593 3.1382,7.627783 2.009578,2.022098 4.734974,3.158077 7.576739,3.158077 2.841765,0 5.567162,-1.135979 7.57674,-3.158077 1.005547,-0.992476 1.802668,-2.178183 2.344033,-3.486712 0.525129,-1.316072 0.794679,-2.721264 0.794029,-4.139481 z M 10.71382,17.5396 C 9.805504,17.546995 8.905706,17.362976 8.072306,16.999376 6.47034,16.306736 5.197862,15.01565 4.522702,13.397869 4.176065,12.568792 3.997499,11.678378 3.997499,10.778899 3.997499,9.87942 4.176065,8.989002 4.522702,8.159926 5.198455,6.542545 6.470742,5.251654 8.072306,4.558418 8.904268,4.201477 9.799348,4.017481 10.703758,4.017481 c 0.904411,0 1.799491,0.183996 2.631453,0.540937 0.797859,0.345583 1.522261,0.842301 2.133784,1.463113 0.606731,0.619605 1.092984,1.347921 1.433704,2.147401 0.348321,0.825093 0.527851,1.71237 0.527851,2.608841 0,0.896471 -0.17953,1.783747 -0.527851,2.608841 -0.341137,0.79925 -0.827342,1.527494 -1.433704,2.1474 -0.612091,0.620125 -1.336353,1.116745 -2.133784,1.463112 -0.826086,0.365326 -1.71907,0.552417 -2.621391,0.549226 v -0.0068 z"
         style="fill:#424142;fill-opacity:1;fill-rule:nonzero;stroke:none"
         id="path721" />
    </g>
    <g
       id="g723"
       transform="translate(99.839111,743.57202)"
       style="fill:#424142;fill-opacity:1">
      <path
         d="m 16.341152,6.32528 c 0.263598,0.00811 0.526058,-0.038165 0.771219,-0.135971 0.24516,-0.097807 0.467841,-0.245072 0.65432,-0.43274 0.18648,-0.18767 0.332812,-0.411764 0.429997,-0.658487 0.09719,-0.246725 0.143169,-0.510859 0.135111,-0.776139 8.5e-4,-0.277334 -0.05488,-0.551895 -0.163765,-0.806665 C 18.059153,3.260508 17.899443,3.030947 17.698814,2.84082 16.145765,1.493158 14.240825,0.622681 12.210484,0.332882 10.180141,0.043083 8.109819,0.346155 6.245655,1.206064 4.38149,2.065971 2.801908,3.446545 1.694722,5.183632 0.587536,6.92072 -6.87e-4,8.941246 1e-6,11.004986 c -2.94e-4,1.416293 0.276687,2.818769 0.815108,4.12731 0.538421,1.30854 1.327735,2.497505 2.322859,3.498975 0.995122,1.001471 2.176551,1.795823 3.476799,2.337677 1.300247,0.541855 2.693838,0.820597 4.101154,0.820301 2.572748,0.04457 5.067116,-0.891355 6.982893,-2.620096 0.220395,-0.186798 0.396595,-0.42073 0.515772,-0.684744 0.119175,-0.264015 0.178326,-0.551462 0.173128,-0.841394 0.0075,-0.266317 -0.03851,-0.531418 -0.135368,-0.779369 -0.09686,-0.247954 -0.24254,-0.473637 -0.428278,-0.663485 -0.184999,-0.190102 -0.407078,-0.339628 -0.652271,-0.439184 -0.245196,-0.09956 -0.508202,-0.146984 -0.77249,-0.139307 -0.474041,-0.0033 -0.93438,0.15992 -1.301746,0.461445 -0.608987,0.527832 -1.300489,0.95071 -2.04655,1.251522 -0.744679,0.288952 -1.537014,0.433307 -2.33509,0.425428 C 9.815147,17.766054 8.922798,17.58522 8.09453,17.228844 7.295963,16.888742 6.568846,16.399117 5.951805,15.785988 5.33622,15.171373 4.84545,14.442 4.506907,13.638591 4.159945,12.802896 3.98128,11.906196 3.98128,11.000486 3.98128,10.094777 4.159945,9.198074 4.506907,8.362379 4.84545,7.558969 5.33622,6.829601 5.951805,6.214986 6.568757,5.601179 7.295861,5.110796 8.09453,4.769878 8.922961,4.414272 9.815304,4.234205 10.715921,4.240906 c 0.797098,-0.00823 1.588815,0.132198 2.33509,0.414173 0.741404,0.293909 1.426914,0.714241 2.026427,1.242524 0.365476,0.273896 0.808051,0.423677 1.263714,0.427677 z"
         style="fill:#424142;fill-opacity:1;fill-rule:nonzero;stroke:none"
         id="path725" />
    </g>
    <g
       id="g727"
       transform="translate(145.80652,743.79175)"
       style="fill:#424142;fill-opacity:1">
      <path
         d="M 21.425903,10.785118 C 21.453823,9.365485 21.190115,7.955347 20.651285,6.643061 20.112453,5.330774 19.310114,4.144625 18.294558,3.15893 16.284784,1.136339 13.558947,5.5e-5 10.716699,5.5e-5 7.874451,5.5e-5 5.148627,1.136339 3.138854,3.15893 1.129082,5.181522 0,7.924742 0,10.785118 c 0,2.860376 1.129082,5.6036 3.138854,7.626192 2.00996,2.022236 4.735714,3.15827 7.577845,3.15827 2.84213,0 5.567898,-1.136034 7.577859,-3.15827 1.004985,-0.992946 1.802036,-2.178531 2.344043,-3.486709 0.522837,-1.316529 0.790085,-2.721705 0.787302,-4.139483 z M 10.709996,17.537943 C 9.80168,17.54534 8.901883,17.36132 8.068482,16.997719 7.275311,16.653616 6.554841,16.160049 5.945879,15.54361 5.340104,14.924618 4.85595,14.19605 4.518879,13.396213 4.172242,12.567136 3.993675,11.676722 3.993675,10.777243 3.993675,9.877764 4.172242,8.987347 4.518879,8.15827 4.855434,7.358819 5.339666,6.630896 5.945879,6.013123 6.554237,5.39595 7.274857,4.902285 8.068482,4.559017 8.900444,4.202074 9.795525,4.018078 10.699935,4.018078 c 0.90441,0 1.799477,0.183996 2.631438,0.540939 0.797859,0.345581 1.522275,0.842299 2.133797,1.463111 0.607595,0.618894 1.093965,1.347385 1.433704,2.147401 0.34832,0.825093 0.527851,1.712366 0.527851,2.608837 0,0.896471 -0.179531,1.783751 -0.527851,2.608844 -0.340301,0.799708 -0.826605,1.528096 -1.433704,2.147397 -0.61209,0.620125 -1.336366,1.116745 -2.133797,1.463112 -0.826252,0.364551 -1.719215,0.550876 -2.621377,0.546978 v -0.0068 z"
         style="fill:#424142;fill-opacity:1;fill-rule:nonzero;stroke:none"
         id="path729" />
    </g>
    <g
       id="g731"
       transform="translate(170.10156,743.79297)"
       style="fill:#424142;fill-opacity:1">
      <path
         d="m 4.83e-4,2.003181 v 26.786213 c -0.005821,0.264752 0.041054,0.528 0.137853,0.774247 0.096799,0.246246 0.24157,0.470514 0.425793,0.659603 0.380291,0.376527 0.8924,0.587547 1.425882,0.587547 0.533482,0 1.04559,-0.21102 1.425881,-0.587547 0.184224,-0.189089 0.328994,-0.413357 0.425793,-0.659603 0.096799,-0.246247 0.143661,-0.509495 0.13784,-0.774247 V 4.02903 h 0.919271 c 0.530324,0 1.038927,-0.212015 1.413923,-0.589403 0.374996,-0.377388 0.58568,-0.889235 0.58568,-1.422942 0,-0.533706 -0.210684,-1.045553 -0.58568,-1.422939 C 5.937723,0.216358 5.42912,0.004343 4.898796,0.004343 H 1.970994 C 1.710339,7.8e-5 1.451622,0.050064 1.211065,0.151161 0.970508,0.252258 0.753301,0.40229 0.573071,0.591843 0.388205,0.776234 0.24221,0.996264 0.143824,1.23877 0.045438,1.481276 -0.003316,1.741268 4.83e-4,2.003181 Z"
         style="fill:#424142;fill-opacity:1;fill-rule:nonzero;stroke:none"
         id="path733" />
    </g>
    <g
       id="g837">
      <g
         id="g839"
         clip-path="url(#clipPath843)">
        <g
           id="g845">
          <path
             d="m 0,800 v 1 h -1 v -1 z m 360,0 h 1 v 1 h -1 z M 360,0 v -1 h 1 V 0 Z M 0,0 h -1 v -1 h 1 z m 0,799 h 360 v 2 H 0 Z m 359,1 V 0 h 2 V 800 Z M 360,1 H 0 V -1 H 360 Z M 1,0 V 800 H -1 V 0 Z"
             style="fill:#000000;fill-opacity:1;fill-rule:nonzero;stroke:none"
             id="path847" />
        </g>
      </g>
    </g>
  </g>
</svg>
